<svg xmlns="http://www.w3.org/2000/svg" viewBox="0 0 300.27 356.69"><defs><style>.cls-1{fill:#ffdf43;stroke:#0071bc;stroke-miterlimit:10;}.cls-2{fill:#212a55;}.cls-3{font-size:36px;fill:#1b1464;font-family:BerlinSansFBDemi-Bold, Berlin Sans FB Demi;font-weight:700;}</style></defs><title>Boom</title><g id="YELLOW_PART" data-name="YELLOW PART"><path class="cls-1" d="M216.62,300.3c-2.29-4.68-30.64-32.15-36.25-44a28.25,28.25,0,0,0-4.4-6,6,6,0,0,0-5.39-1.83,5,5,0,0,0-4.25,2.84,21,21,0,0,0-1.35,3.51c-1.26,4.3-2.51,8.61-3.67,12.94-2.51,9.36-4.95,18.73-7.45,28.09-.35,1.31-.89,2.57-1.58,4.57a40.15,40.15,0,0,1-2.31-3.61c-3-6.33-6-12.66-8.87-19-3.49-7.67-6.85-15.4-10.37-23.06-1.12-2.44-2.5-4.77-3.85-7.1s-3.26-2.85-5.91-2.51a14.13,14.13,0,0,0-6.83,2.84,72.68,72.68,0,0,0-12.33,12c-5.93,7.21-11.59,14.61-16.88,22.31-.85,1.23-1.42,2.92-3.13,3.22-1.06-.38-.92-1.21-1-1.87a444.5,444.5,0,0,1-1.29-45.73,171.34,171.34,0,0,1,2.17-19.24c.28-1.87,1.47-3.6,2.25-5.39s0-3.71-2-4.05c-4.63-.76-9.21-.94-13.81.64-10.35,3.54-20.54,7.45-30.54,11.93a159.07,159.07,0,0,1-26,8.67c-2.08.54-4.16,1-6.27,1.48a1.38,1.38,0,0,1-1.4-1.79,16.3,16.3,0,0,1,1.71-3.93c1.7-2.4,2.49-5.14,3.41-7.86A106.11,106.11,0,0,1,18,198.22a38.25,38.25,0,0,0,2-3.82c2.47-5.56,4.67-11.26,7.42-16.68a155,155,0,0,1,8.21-13.87c4-6.17,8.08-12.24,12.26-18.26,2.95-4.25,5.91-8.49,11.15-10.44,2.09-.78,1.89-3.52-.22-4.61a22.85,22.85,0,0,0-7.5-2.83c-7.11-1-14.2-2.06-21.29-3.17-4.43-.69-8.85-1.43-13.25-2.29a11.07,11.07,0,0,1-5.22-2.13,8.46,8.46,0,0,1,1.75-1.3c4-1.5,8.06-2.93,12.09-4.39,1.52-.54,3-1.05,4.55-1.64a198.84,198.84,0,0,1,27.56-9c3.31-.77,6.6-1.6,9.93-2.32,1.39-.3,2.1-1.17,2.81-2.55-1-1.29-2-2.52-2.86-3.82-1.41-2.07-2.75-4.19-4.14-6.28A35.22,35.22,0,0,0,59.86,84C57.5,81.41,56,78.35,54.5,75.32,51.26,68.93,48.11,62.48,45,56.05c-.54-1.1-1-2.25-1.36-3.26.81-1,1.45-.48,2-.18C51.7,55.72,57.82,58.74,63.8,62c3.29,1.79,6.4,4,9.54,6,1.94,1.28,3.72,2.81,5.66,4.1a34.87,34.87,0,0,1,8.66,8,8.07,8.07,0,0,0,4.74,3.14,3.12,3.12,0,0,0,2.26-2.81c1.71-11.71,4.8-23.12,7.52-34.61.62-2.61.82-5.32,1.44-7.94,1.56-6.63,3-13.29,5-19.81,1.21-4.05,3.21-7.87,5.09-12.38.9,1.11,1.64,1.66,1.88,2.37,2.09,6.1,4.31,12.18,6.08,18.37,3,10.7,5.84,21.47,9.82,31.88.25.67.44,1.36.7,2,1.32,3.33,4.23,4.15,7.35,4.4.68.06,1.63-.72,2.12-1.36,1.18-1.57,2.08-3.36,3.25-4.94,7.89-10.68,16.12-21.05,26.26-29.79,5.7-4.91,10.88-10.43,16.49-15.45,3.46-3.11,7.28-5.82,11-8.66a16,16,0,0,1,2.58-1.25A103,103,0,0,1,197.8,19c-3.05,11.44-6.36,22.82-9.57,34.21-.44,1.56-.95,3.09-1.34,4.66-.84,3.36.81,6.23,4.21,6.69a93.17,93.17,0,0,0,10.71.67c8.07.15,16.13.43,24.18,1.25,6.59.67,13.23.84,19.86,1.07a128.83,128.83,0,0,1,21.91,2.28,21.87,21.87,0,0,1,6.47,1.95c-1.61,2.22-4.06,2.31-6,3.27s-4.25,1.9-6.36,2.91-4.5,2.23-6.72,3.39c-2.07,1.07-4.1,2.23-6.17,3.3s-4.16,2.11-6.26,3.12-4.2,1.92-6.67,3a10.16,10.16,0,0,0,1.37,2.63,12,12,0,0,0,2.73,1.65c4.54,2.53,9.08,5.07,13.63,7.58,5.56,3,10.27,7.22,14.92,11.42,7.58,6.87,15.27,13.58,23.75,19.32.89.61,1.76,1.26,2.59,1.93a3.76,3.76,0,0,1,.59,1c-1.9,1.49-4.24,1.86-6.47,2.43a47.19,47.19,0,0,1-6.34,1.19c-10.15,1.18-20.26,2.81-30.55,2-4.09-.33-8.25-.62-12.2,1a5.87,5.87,0,0,0-1,.84,35.39,35.39,0,0,0,1.71,3.73c4.91,8.13,9.9,16.22,14.8,24.36q7.62,12.66,15.12,25.42,4.36,7.41,8.55,14.94c.83,1.49,2.32,2.85,1.63,4.93a10.22,10.22,0,0,1-6.35.16c-8.72-2-17.47-4-25.84-7.32a93,93,0,0,0-10.29-3.08c-2.42-.65-5-.93-7.33-1.71-3-1-5.6-.61-8,2a18.51,18.51,0,0,0,.83,2.82c2.33,5.25,4.63,10.52,7.11,15.69a272.09,272.09,0,0,1,10.92,27.5,13.8,13.8,0,0,1,.42,2c-1.23.76-1.75-.16-2.29-.7-4.44-4.43-8.9-8.84-13.24-13.37a18.88,18.88,0,0,0-5.63-4.05,4.81,4.81,0,0,0-5.09.41c-2.44,1.67-4.22,3.66-4.24,7C211.74,252.72,216,288.2,216.62,300.3Z"/></g><g id="Layer_2" data-name="Layer 2"><path class="cls-2" d="M50.54,133a6.69,6.69,0,0,0-1.8-.86c-3.5-.46-7-1-10.54-1.18-6.14-.25-12-2-17.89-3.36-4.58-1-9-2.63-13.54-4.06-2.15-.69-4-1.74-3.93-4.83.76-.24,1.53-.48,2.28-.74,4.14-1.44,8.35-2.71,12.42-4.35,12.54-5,25.1-10,38.16-13.58,1.4-.39,3.08-.39,4-2-1.95-3.27-4-6.56-5.88-9.9-1.51-2.63-3-5.29-4.36-8-3.09-6.19-6.18-12.38-9.13-18.64-1.57-3.36-2.88-6.84-4.23-10.3s.76-6.14,4.44-5.35a14.61,14.61,0,0,1,4.54,2c3.7,2.35,7.2,5,11,7.24,5,2.87,10.15,5.35,15.18,8.11,2.8,1.54,5.52,3.22,8.17,5,3.21,2.17,6.3,4.53,9.46,6.79a19.21,19.21,0,0,0,2,1.06,14.07,14.07,0,0,0,1-2.92c.92-9.42,2.56-18.73,4.29-28A179.05,179.05,0,0,1,109.05,5.16c1.12-2.54,3.17-3.82,5.49-5.16a7.78,7.78,0,0,1,5.17,2.77c2.32,2.9,4.68,5.77,6.1,9.28,2.91,7.21,6.44,14.12,9.85,21.1,2.14,4.38,3.6,9.08,5.38,13.63.61,1.56,1.26,3.11,2.05,5.06,1.07-1,1.95-1.64,2.68-2.45a333.94,333.94,0,0,1,39-36.88c3.15-2.54,6.43-4.93,9.69-7.33a24.82,24.82,0,0,1,4.27-2.71,10.91,10.91,0,0,1,4.34-1.09c2.5,0,4.59,1.74,3.94,4.62-.45,2-.73,4-1.14,6a217.43,217.43,0,0,0-2.93,21.55c-.89,8.57-2,17.11-2.88,25.67a46.89,46.89,0,0,0,0,5c2.35.72,4.55.55,6.72.67,7.41.43,14.83.83,22.25,1.25,3.37.19,6.74.57,10.12.61a119,119,0,0,1,27.52,4c3.44.86,6.9,1.65,10.28,2.72a21.17,21.17,0,0,1,4.91,2.48,2.16,2.16,0,0,1,.31,3.5,7.65,7.65,0,0,1-3.24,2.26c-5.23,1.24-9.53,4.16-14,7-4.84,3.08-9.9,5.81-14.84,8.72a15.76,15.76,0,0,0-1.83,1.51c3,2,5.73,3.91,8.58,5.63a78.66,78.66,0,0,1,12.09,9.17c3.88,3.51,7.79,7,11.91,10.24s8.24,5.87,12.38,8.78c1.52,1.06,3.13,2,4.57,3.18a23.56,23.56,0,0,1,2.49,2.81c-.91.77-1.54,1.78-2.35,1.94-6.61,1.31-13.22,2.66-19.89,3.62-7.34,1.06-14.75,1.72-22.12,2.57-.79.09-1.57.32-2.67.54a13.1,13.1,0,0,0,1,2.53,229.8,229.8,0,0,1,16.52,29.55c2.76,6,5.21,12.08,7.8,18.12.4.92.73,1.88,1.21,2.76a29.87,29.87,0,0,1,3.34,14c0,1.68-1,2.69-2.9,2.77a80.3,80.3,0,0,1-26.56-2.81c-5.18-1.54-10.4-2.9-15.49-4.75-.76-.27-1.57-.45-2.24-.65-1,.86-.66,1.64-.3,2.41,4.82,10.29,7.76,21.21,10.64,32.12,1.63,6.16,3.34,12.35,3.75,18.86-2.33,2.34-4.95,2.05-7.43.72a34.06,34.06,0,0,1-5.79-4.06,157.33,157.33,0,0,1-17.17-16.49c-.87-1-1.84-1.87-2.84-2.87A12.11,12.11,0,0,0,215.3,246c0,4-.15,8.09-.08,12.13.08,4.89.3,9.79.52,14.68a11.21,11.21,0,0,0,.64,2.24c1.56-.4,3-.83,4.45-1.12a7.09,7.09,0,0,1,2.47-.11,2.18,2.18,0,0,1,1.92,2.05,8.48,8.48,0,0,1-.05,1.51,105.55,105.55,0,0,0,.32,14.66,100,100,0,0,1-.21,17.64c-.56,5.17-.05,10.46.13,15.69.11,3.37.57,6.73.7,10.1a16.12,16.12,0,0,0,1.31,6.38,8.15,8.15,0,0,1,.71,3.41,24.67,24.67,0,0,0,.71,8c.72,2.28-1.87,4.08-4.2,3.24a5.2,5.2,0,0,1-3.55-3.94c-4.05-16.77-10.52-32.78-15.48-49.27a24.59,24.59,0,0,0-1.32-3c-1.36-.33-1.75.49-2.2,1.18-.73,1.12-1.35,2.33-2.18,3.38a5.35,5.35,0,0,1-9.14-.53,20.4,20.4,0,0,1-1.61-3.71c-1.95-5.58-3.8-11.2-5.79-16.77-2.1-5.88-4.29-11.74-6.5-17.58a13.19,13.19,0,0,0-1.33-2.16c-1.51.94-1.74,2.31-2.2,3.5-3.1,8-6.11,16.06-9.26,24.05-1.05,2.67-2.35,5.24-3.65,7.79a35.6,35.6,0,0,1-2.24,3.41l-4.1.48a8.88,8.88,0,0,1-9.34-4.67c-1.55-2.61-3.05-5.27-4.35-8-4.83-10.23-9.56-20.51-14.35-30.76-1.13-2.43-2.35-4.81-3.69-7.55a32.22,32.22,0,0,0-2.51,2.08q-7.34,7.72-14.62,15.48c-4.16,4.43-8.34,8.85-12.49,13.28-1.84,2-3.54,4.07-5.48,5.92-2.2,2.09-6.88,2.65-9.47,1.27A5,5,0,0,1,75,287a36.16,36.16,0,0,1-.77-4.48c-1.4-16.35-2-32.72-2.11-49.12,0-3.53.24-7,.38-10.95a11.18,11.18,0,0,0-2.53,0c-6.07,1.48-12.09,3.14-18.18,4.53-7.88,1.8-15.73,3.78-23.85,4.47-3.48.3-6.84,1.78-10.44,1.72s-7.42,0-11.12-.07a9.33,9.33,0,0,1-3.39-.93C.08,230.87-.63,229.07.53,226a215.56,215.56,0,0,1,9.2-21.39c4.18-8.1,7.89-16.44,11.7-24.72a198.87,198.87,0,0,1,17.44-29.69C42.53,145,46.27,139.76,50,134.5A7.46,7.46,0,0,0,50.54,133ZM218.63,319.54c1.35-11.34.25-21.64.3-31.94,0-2.18-.22-4.37-.36-6.56a.69.69,0,0,0-.22-.42,2.69,2.69,0,0,0-.61-.29c-1.31.38-2.73.89-4.19,1.19a3.87,3.87,0,0,1-2.44-.14c-2.1-1.15-3.91-2.54-3.92-5.39,0-4.73-.34-9.46-.29-14.18.07-7.77.45-15.54.5-23.3,0-3.15,1.7-5,4-6.59a4.54,4.54,0,0,1,4.79-.38,17.63,17.63,0,0,1,5.3,3.81c4.09,4.26,8.29,8.42,12.47,12.59.51.51,1,1.37,2.16.66a15.27,15.27,0,0,0-.4-1.9,257.17,257.17,0,0,0-10.28-25.89c-2.34-4.87-4.5-9.83-6.7-14.77a18.75,18.75,0,0,1-.78-2.66,6.56,6.56,0,0,1,7.58-1.9c2.23.73,4.61,1,6.89,1.61a86.49,86.49,0,0,1,9.69,2.9c7.88,3.16,16.12,5,24.34,6.89a9.53,9.53,0,0,0,6-.15c.65-2-.75-3.24-1.53-4.64Q267,201,262.83,194q-7.06-12-14.23-23.93c-4.61-7.67-9.31-15.28-13.93-22.94a34.17,34.17,0,0,1-1.62-3.5,5.69,5.69,0,0,1,1-.8c3.72-1.55,7.64-1.27,11.49-1,9.69.8,19.21-.73,28.76-1.84a46.65,46.65,0,0,0,6-1.12c2.1-.54,4.3-.89,6.09-2.3a3.4,3.4,0,0,0-.56-.9c-.78-.64-1.6-1.25-2.44-1.82A206.22,206.22,0,0,1,261,115.72c-4.37-4-8.81-7.88-14-10.76-4.29-2.36-8.57-4.76-12.84-7.14a11,11,0,0,1-2.57-1.55,9.47,9.47,0,0,1-1.29-2.48c2.33-1.06,4.31-1.94,6.28-2.87s3.95-1.92,5.9-2.93,3.85-2.1,5.8-3.12c2.1-1.09,4.2-2.16,6.34-3.18,2-1,4-1.77,6-2.75,1.81-.9,4.13-1,5.64-3.08A20.69,20.69,0,0,0,260.1,74a121,121,0,0,0-20.63-2.14c-6.24-.22-12.5-.38-18.71-1-7.57-.78-15.16-1-22.76-1.18a89.31,89.31,0,0,1-10.09-.63c-3.2-.44-4.75-3.14-4-6.3.37-1.48.85-2.92,1.26-4.38,3-10.74,6.14-21.44,9-32.22a97.1,97.1,0,0,0,3.19-14.73A15.32,15.32,0,0,0,195,12.61c-3.49,2.68-7.08,5.23-10.34,8.15-5.29,4.74-10.16,9.93-15.53,14.56-9.55,8.23-17.29,18-24.73,28-1.1,1.49-1.94,3.17-3.06,4.65-.46.61-1.35,1.34-2,1.29-2.93-.24-5.68-1-6.92-4.15-.25-.63-.42-1.28-.66-1.91-3.75-9.8-6.37-20-9.25-30-1.67-5.84-3.75-11.56-5.72-17.3-.23-.67-.92-1.19-1.77-2.23-1.77,4.24-3.66,7.83-4.79,11.65C108.41,31.49,107,37.77,105.55,44c-.58,2.46-.77,5-1.35,7.47C101.63,62.3,98.72,73,97.12,84.07A3,3,0,0,1,95,86.72a7.64,7.64,0,0,1-4.47-3,32.48,32.48,0,0,0-8.16-7.52C80.54,75,78.86,73.58,77,72.37c-3-2-5.87-4-9-5.67-5.63-3.07-11.38-5.92-17.1-8.84-.56-.29-1.16-.82-1.92.16.39.95.77,2,1.27,3.07,3,6.06,6,12.13,9,18.15a34.35,34.35,0,0,0,5,8.14A35.63,35.63,0,0,1,67.49,92c1.31,2,2.57,4,3.9,5.92.84,1.22,1.78,2.38,2.69,3.59a3.78,3.78,0,0,1-2.65,2.41c-3.13.68-6.23,1.45-9.35,2.19a184.84,184.84,0,0,0-25.94,8.45c-1.41.56-2.86,1-4.29,1.55-3.8,1.36-7.6,2.71-11.38,4.12a8,8,0,0,0-1.65,1.23,10.44,10.44,0,0,0,4.92,2c4.14.8,8.3,1.5,12.47,2.15,6.68,1,13.35,2.07,20,3a21.94,21.94,0,0,1,7.06,2.67c2,1,2.18,3.61.2,4.34-4.93,1.84-7.71,5.83-10.49,9.83-3.94,5.67-7.81,11.39-11.55,17.19a150.78,150.78,0,0,0-7.73,13.06c-2.58,5.11-4.65,10.47-7,15.71a37.1,37.1,0,0,1-1.86,3.6,99.66,99.66,0,0,0-8.41,18.88,27.77,27.77,0,0,1-3.21,7.4,15.9,15.9,0,0,0-1.62,3.69A1.32,1.32,0,0,0,13,226.62c2-.4,3.94-.89,5.9-1.39a150.38,150.38,0,0,0,24.46-8.17c9.42-4.21,19-7.9,28.75-11.23,4.34-1.48,8.65-1.32,13-.6,1.94.31,2.7,2,1.91,3.81s-1.85,3.32-2.11,5.08a160.55,160.55,0,0,0-2,18.11,415.26,415.26,0,0,0,1.21,43.06c0,.62-.09,1.4.92,1.76,1.6-.28,2.14-1.88,2.94-3,5-7.25,10.31-14.22,15.9-21a67.92,67.92,0,0,1,11.61-11.25,13.17,13.17,0,0,1,6.42-2.68c2.5-.33,4.32.23,5.57,2.37s2.57,4.38,3.62,6.67c3.31,7.22,6.48,14.5,9.77,21.72,2.73,6,5.53,12,8.35,17.91a37.54,37.54,0,0,0,2.17,3.41c.66-1.88,1.16-3.07,1.49-4.3,2.36-8.82,4.66-17.64,7-26.45,1.09-4.08,2.27-8.14,3.45-12.19a20.73,20.73,0,0,1,1.27-3.31,4.67,4.67,0,0,1,4-2.67,5.62,5.62,0,0,1,5.07,1.73,26.24,26.24,0,0,1,4.15,5.69,318.45,318.45,0,0,1,14,34.19c1.4,4.15,2.9,8.27,4.41,12.38.27.73.42,1.69,1.84,1.81.81-.76,1.72-1.71,2.73-2.57a30.84,30.84,0,0,1,3.59-2.76,3.24,3.24,0,0,1,4.47.86,9,9,0,0,1,1.17,2.24c1.38,4,2.81,8,4,12A71.76,71.76,0,0,0,218.63,319.54Z"/></g><g id="TEXT"><text class="cls-3" transform="translate(98.89 165.78)">BOOM!</text></g></svg>