<svg id="Layer_1" data-name="Layer 1" xmlns="http://www.w3.org/2000/svg" viewBox="0 0 231.93 231.93"><defs><style>.cls-1{fill:#ff0;}.cls-2{stroke:#000;stroke-miterlimit:10;}</style></defs><title>sign straight left right</title><g id="outer_rectangle" data-name="outer rectangle"><rect x="34.47" y="34.47" width="163" height="163" transform="translate(-48.03 115.97) rotate(-45)"/><path d="M116,1.41,230.52,116,116,230.52,1.41,116,116,1.41M116,0,0,116l116,116,116-116L116,0Z"/></g><g id="inner_rectangle" data-name="inner rectangle"><path class="cls-1" d="M116.23,208.83a12.37,12.37,0,0,1-8.82-3.66L27,124.79a12.49,12.49,0,0,1,0-17.65l80.39-80.38a12.46,12.46,0,0,1,17.64,0l80.39,80.38a12.49,12.49,0,0,1,0,17.65l-80.39,80.38A12.39,12.39,0,0,1,116.23,208.83Z"/><path d="M116.23,23.6a11.92,11.92,0,0,1,8.47,3.51l80.38,80.39a12,12,0,0,1,0,16.93L124.7,204.82a12,12,0,0,1-16.94,0L27.37,124.43a12,12,0,0,1,0-16.93l80.39-80.39a11.91,11.91,0,0,1,8.47-3.51m0-1a13,13,0,0,0-9.18,3.8L26.67,106.79a13,13,0,0,0,0,18.35l80.38,80.39a13,13,0,0,0,18.35,0l80.39-80.39a13,13,0,0,0,0-18.35L125.4,26.4a12.93,12.93,0,0,0-9.17-3.8Z"/></g><polygon id="straight_left_right" data-name="straight left right" class="cls-2" points="102.47 179.47 120.47 179.47 120.47 126.47 141.47 126.47 141.47 148.47 165.47 116.47 143.47 94.47 143.47 107.47 120.47 107.47 120.47 75.47 120.47 65.47 133.47 65.47 112.47 45.47 91.47 63.47 91.47 65.47 103.47 65.47 102.47 179.47"/></svg>