<svg xmlns="http://www.w3.org/2000/svg" viewBox="0 0 310.52 321.09"><defs><style>.cls-1{fill:#212a55;stroke:#000;stroke-miterlimit:10;stroke-width:2px;}.cls-2{font-size:40.46px;fill:#ff0;font-family:BerlinSansFBDemi-Bold, Berlin Sans FB Demi;font-weight:700;}</style></defs><title>WOW</title><g id="blue"><path id="circle" class="cls-1" d="M271.62,220.33a77.06,77.06,0,0,0,6.84,18.56c1,1.93,2.08,3.79,3.23,5.62a72,72,0,0,0-14.62-2.14,62.79,62.79,0,0,0-27.58,5.07l-2.63,1.15,1,2.54,6.53,17.05,6.57,17,6.57,17L263,316.09q-10.5-12-21.1-23.86l-23.44-26.29-2-2.23L214.38,266a87.65,87.65,0,0,0-15.76,25.35A102.94,102.94,0,0,0,194,305.61c-.35,1.41-.66,2.82-.95,4.24a72.22,72.22,0,0,0-14.39-14.14A71.2,71.2,0,0,0,150.39,283a80.57,80.57,0,0,0-30.95,0,60.25,60.25,0,0,0-7.68,2.09c-1.26.42-2.51.94-3.75,1.43l-3.45,1.51a64.53,64.53,0,0,0-13.14,7.56l-.17.09-.29.16-.37.26-1,.74A73.11,73.11,0,0,0,86,277.7a72.88,72.88,0,0,0-18.63-29A70.55,70.55,0,0,0,37.08,232a67.91,67.91,0,0,0-18.67-2.07,83.52,83.52,0,0,0,9-19.51,83.55,83.55,0,0,0,2.73-37.07,87.16,87.16,0,0,0-4.83-18,91.4,91.4,0,0,0-8.59-16.47A93.19,93.19,0,0,0,4.81,124.64c-.83-.78-1.68-1.53-2.53-2.27a86.25,86.25,0,0,0,22.63-6.64A87.15,87.15,0,0,0,55.28,92.32,81.81,81.81,0,0,0,71.82,58a78.8,78.8,0,0,0,.76-29.63,65.76,65.76,0,0,0,21.21,9.19A67,67,0,0,0,125,37.27a68.12,68.12,0,0,0,27.64-14.09,68.73,68.73,0,0,0,10.74-11.29,65.59,65.59,0,0,0,5.87-9.39A66.39,66.39,0,0,0,183.1,25.59a68.84,68.84,0,0,0,26,17.65,68.93,68.93,0,0,0,31.36,4.07,68.4,68.4,0,0,0,20.94-5.72,69.21,69.21,0,0,0,30.5,84.79A67.57,67.57,0,0,0,308,133.07a81.25,81.25,0,0,0-28.19,29.38A79.53,79.53,0,0,0,269.5,200.6,79.34,79.34,0,0,0,271.62,220.33Z"/></g><g id="text"><text class="cls-2" transform="translate(96.42 167.88)">WOW!</text></g></svg>