<svg xmlns="http://www.w3.org/2000/svg" viewBox="0 0 469.91 334.31"><defs><style>.cls-1{fill:#fff;}.cls-1,.cls-4{fill-rule:evenodd;}.cls-2,.cls-5{fill:#212a55;}.cls-3{opacity:0.5;}.cls-4{fill:#64d7d7;}.cls-5{font-size:149.81px;font-family:Amatic-Bold, Amatic Bold;font-weight:700;letter-spacing:0em;}.cls-6{letter-spacing:0em;}</style></defs><title>yaas</title><g id="out_box" data-name="out box"><path class="cls-1" d="M251.84,7.78C298,2.65,346.78-5,393,10.35,464.82,36,472.52,133.52,467.39,197.67c-7.7,102.64-118,89.81-197.59,89.81-20.53,0-61.58-7.7-79.55,0-12.83,7.7-18,30.79-33.35,38.49-25.66,15.4-61.59,2.57-87.25-7.7,25.66-2.56,59-7.7,59-38.49C77.35,269.52,36.29,290.05,13.2,228.46-2.2,187.4-2.2,123.25,10.63,84.76c30.79-110.34,159.1-61.58,241.21-77" transform="translate(0 0)"/><path class="cls-2" d="M251.84,9C290.31,4.75,329.54-1.2,368.1,5.44c15.52,2.67,30.75,7.09,44,15.79a96.62,96.62,0,0,1,26,25.7C452.6,67.69,460,92.69,463.86,117.45s4.33,50.08,2.66,75.07c-.85,12.58-2.6,25-7.24,36.81a76,76,0,0,1-17.66,26.76c-15.29,14.82-36.08,22.13-56.64,26-23.29,4.38-47.21,4.78-70.84,4.63-11.69-.07-23.37-.33-35.05-.44-5.64-.06-11.28,0-16.92-.31-6.91-.4-13.8-1.08-20.69-1.67-13.9-1.2-28.28-2.63-42.17-.51a41.06,41.06,0,0,0-8.18,2,18.47,18.47,0,0,0-6.43,4.54c-4.42,4.44-7.63,10-10.93,15.26-3.56,5.71-7.23,11.58-12.43,16-5.75,4.83-13.41,7.8-20.7,9.22-16.32,3.18-33.41-.72-48.95-5.72-7.34-2.36-14.55-5.11-21.71-8l-.33,2.45c10.83-1.09,21.81-2.41,32.19-5.83,9.27-3.05,18.44-8.05,23.63-16.64a33.64,33.64,0,0,0,4.45-17.27,1.26,1.26,0,0,0-.92-1.2c-17.63-3.49-35.49-3.28-53.33-4.56-15.49-1.11-31-4.31-42.62-15.34-15-14.22-21.68-36-25.68-55.64a263.51,263.51,0,0,1-4.09-71.19C4.79,111,8.77,90,16.78,70.64c6.37-15.39,16.38-29.17,30.05-38.83,12.62-8.91,27.4-14,42.47-16.95C105.81,11.67,122.72,11,139.5,11c17.38,0,34.73.85,52.1,1.24,16.53.36,33.16.4,49.59-1.58q5.52-.67,11-1.67c1.58-.3.91-2.71-.66-2.41-16.18,3-32.74,3.45-49.15,3.32-17.75-.13-35.49-1-53.24-1.32C132,8.31,114.7,8.57,97.67,11,82,13.14,66.41,17.29,52.61,25.18A87.12,87.12,0,0,0,19.61,59C15,67.43,12,76.36,9.07,85.5a177.64,177.64,0,0,0-6.71,31,272.06,272.06,0,0,0,.05,71.89c2.87,21.43,8.13,44.24,20.61,62.29A56.56,56.56,0,0,0,40.78,267.6,63.46,63.46,0,0,0,62.25,275c17,2.91,34.44,2,51.56,3.81q7.31.78,14.53,2.2l-.92-1.21c-.07,10.19-4.32,19.17-12.77,25-8.13,5.64-18.09,8.22-27.72,9.94-5.72,1-11.5,1.68-17.28,2.26a1.26,1.26,0,0,0-.33,2.46c15.22,6.08,30.84,11.81,47.17,14,15.29,2.06,32,.65,44.83-8.77,11-8,15.17-21.68,24.08-31.49,2-2.17,4.2-4.26,7-5.24a44,44,0,0,1,8.34-1.9,121.38,121.38,0,0,1,21.14-.61c14.41.56,28.73,2.53,43.13,3.15,11.58.49,23.23.28,34.82.45,24.21.35,48.58.56,72.65-2.52,21.41-2.74,43.43-8.11,61.29-20.76,18.64-13.2,29.52-33.35,33.33-55.62,2.09-12.23,2.51-24.86,2.73-37.25a346.09,346.09,0,0,0-1.37-38.37c-2.4-25.66-7.85-51.63-19.69-74.71C437.38,37.6,419.49,19.33,396,10.14c-17.79-7-37.65-9.39-56.63-10-19.78-.64-39.55,1-59.19,3.17-9.45,1-18.88,2.17-28.32,3.22-1.58.18-1.6,2.68,0,2.5Z" transform="translate(0 0)"/></g><g id="cyan_area" data-name="cyan area"><g class="cls-3"><path class="cls-4" d="M35,101c27.07-95.36,139.85-53.23,212-66.53,40.6-4.44,83.46-11.09,124.06,2.21,63.16,22.18,69.92,106.45,65.41,161.9-6.76,88.71-103.76,77.62-173.68,77.62-16.75,0-49-5.72-66.21-1.22a1.33,1.33,0,0,0-1.17-.75c-19-.94-37.82-3.64-56.69-4.41,0-.09,0-.18,0-.27-45.11-8.87-81.2,8.87-101.5-44.36C23.77,189.68,23.77,134.23,35,101Z" transform="translate(0 0)"/></g></g><g id="text"><text class="cls-5" transform="translate(103.91 226.15) rotate(-9.13)">y<tspan class="cls-6" x="69.96" y="0">aas!</tspan></text></g></svg>